<?xml version="1.0" standalone="no"?>
<!DOCTYPE svg PUBLIC "-//W3C//DTD SVG 20010904//EN"
 "http://www.w3.org/TR/2001/REC-SVG-20010904/DTD/svg10.dtd">
<svg version="1.0" xmlns="http://www.w3.org/2000/svg"
 width="2406.000000pt" height="2406.000000pt" viewBox="0 0 2406.000000 2406.000000"
 preserveAspectRatio="xMidYMid meet">
<metadata>
Created by potrace 1.14, written by Peter Selinger 2001-2017
</metadata>
<g transform="translate(0.000000,2406.000000) scale(0.100000,-0.100000)"
fill="#000000" stroke="none">
<path d="M8349 20109 c0 -13 -2 -60 -4 -104 -3 -99 -2 -95 -18 -95 -18 0 -55
-41 -58 -65 -6 -38 11 -74 41 -90 39 -20 38 -48 -2 -66 -37 -16 -64 -61 -63
-103 1 -30 51 -96 73 -96 10 0 12 -15 10 -57 l-3 -56 -125 -94 c-69 -52 -132
-100 -140 -106 -9 -7 -43 -30 -75 -52 -235 -156 -372 -290 -445 -434 -32 -64
-67 -159 -75 -206 -20 -116 -11 -294 19 -370 4 -11 13 -33 19 -50 38 -103 149
-237 275 -331 39 -31 72 -57 72 -58 0 -2 -17 -3 -37 -1 -21 1 -43 1 -49 -2 -7
-3 -10 -206 -10 -669 1 -366 -2 -671 -5 -676 -4 -6 -34 -11 -68 -10 -34 0 -61
-1 -61 -2 0 -1 20 -61 44 -133 29 -87 40 -133 32 -136 -6 -2 -62 -4 -124 -4
-62 -1 -115 -3 -117 -5 -3 -2 1 -22 7 -44 6 -21 12 -41 13 -44 0 -3 3 -9 6
-15 3 -5 11 -30 18 -55 7 -25 17 -54 21 -65 14 -33 130 -389 130 -398 0 -4 -6
-7 -12 -7 -17 0 -62 -39 -75 -65 -16 -30 -13 -195 4 -227 20 -41 59 -62 118
-64 29 -1 56 -4 61 -7 7 -4 11 -2018 5 -2059 -1 -4 -47 -6 -104 -5 -57 0 -107
-2 -113 -5 -5 -4 -16 -3 -23 1 -14 9 -61 2 -61 -9 0 -9 19 -68 30 -95 5 -11
14 -38 20 -60 6 -22 15 -49 20 -60 5 -11 57 -165 115 -343 59 -177 110 -324
114 -326 3 -2 6 -466 5 -1030 0 -720 3 -1026 10 -1029 6 -2 23 -3 39 -2 15 1
27 -2 27 -6 0 -5 11 -4 24 1 13 5 26 7 28 4 3 -2 49 -6 104 -9 54 -3 124 -7
154 -10 68 -7 152 -15 205 -19 37 -4 62 -7 170 -22 22 -3 60 -7 85 -9 25 -2
45 -5 45 -5 0 -3 41 -10 85 -16 52 -6 85 -11 120 -20 14 -3 36 -6 50 -7 14 -1
31 -6 38 -10 8 -5 12 -2 13 10 0 10 0 512 1 1116 0 886 3 1105 13 1135 18 49
25 72 23 75 -1 1 5 13 12 27 8 14 15 30 16 35 4 20 69 200 74 205 3 3 7 14 8
25 2 11 10 32 18 47 8 15 14 31 14 37 0 5 5 22 12 38 6 15 12 33 14 38 1 6 25
73 53 150 28 76 51 142 51 145 0 5 -102 5 -125 0 -5 -1 -14 -1 -20 0 -5 2 -44
2 -86 1 l-76 -1 -1 1022 c0 563 1 1030 4 1038 3 12 17 15 56 14 60 -1 83 8
115 45 25 29 26 29 25 156 0 57 -4 91 -11 93 -6 2 -11 9 -11 16 0 14 -51 46
-74 46 -9 0 -16 4 -16 9 0 5 25 78 56 162 31 85 57 159 58 164 1 6 9 26 18 45
8 19 18 47 21 62 4 15 12 40 19 55 24 60 46 128 43 132 -3 2 -63 4 -134 3
l-129 0 8 26 c16 55 65 187 70 192 3 3 6 11 8 18 1 6 3 18 5 25 1 8 -14 13
-48 14 -27 1 -57 2 -66 2 -15 1 -17 60 -17 664 0 364 -1 669 -1 678 -1 12 -12
15 -51 15 -54 -2 -63 6 -28 25 13 7 28 17 35 23 7 6 27 22 45 36 48 37 150
139 184 185 43 56 92 164 101 220 3 17 8 49 12 71 8 42 6 177 -2 225 -22 120
-79 250 -150 344 -79 104 -170 183 -372 321 -91 62 -223 159 -235 173 -3 4
-29 22 -57 41 -29 19 -53 42 -54 50 0 8 -2 30 -4 48 -2 21 2 37 12 45 53 42
73 71 73 106 0 49 -39 105 -75 106 -25 0 -15 39 18 66 29 24 34 35 34 66 -1
39 -16 62 -53 81 -18 10 -21 21 -23 113 -1 57 -4 105 -6 108 -3 2 -5 -7 -6
-20z m-178 -2719 c20 -6 52 -25 71 -43 66 -62 67 -68 68 -424 l0 -321 -22 -3
c-20 -3 -259 -3 -339 0 l-26 1 2 323 c1 304 6 377 25 377 5 0 11 9 15 20 10
32 95 77 150 79 11 1 36 -4 56 -9z m549 -29 c43 -34 82 -90 76 -108 -3 -7 -2
-13 2 -13 4 0 7 -145 7 -322 l0 -322 -187 0 c-103 0 -191 3 -194 7 -4 3 -6
145 -7 315 0 332 4 360 52 415 61 70 182 83 251 28z"/>
<path d="M17619 16408 c0 -2 -2 -79 -4 -173 -4 -204 -1 -185 -24 -185 -20 0
-80 -53 -82 -73 -10 -84 12 -133 70 -157 45 -18 37 -56 -19 -84 -85 -43 -114
-150 -61 -225 24 -33 74 -65 85 -54 3 4 7 -2 7 -13 2 -22 1 -102 0 -126 -1
-10 -21 -32 -46 -50 -25 -18 -74 -54 -108 -81 -34 -26 -72 -55 -85 -65 -12 -9
-28 -22 -35 -28 -6 -6 -68 -50 -137 -98 -69 -48 -133 -93 -142 -101 -10 -8
-18 -11 -18 -7 0 4 -4 2 -8 -4 -4 -6 -29 -26 -57 -44 -57 -39 -57 -39 -150
-116 -65 -53 -166 -152 -208 -204 -32 -38 -113 -163 -136 -207 -23 -46 -64
-151 -60 -155 1 -2 -3 -14 -10 -27 -7 -13 -14 -33 -16 -45 -2 -11 -6 -32 -10
-46 -12 -50 -17 -86 -19 -142 0 -32 -3 -58 -6 -58 -6 0 -4 -62 6 -135 3 -27 8
-63 10 -80 3 -31 11 -70 14 -70 1 0 3 -7 5 -15 8 -40 69 -183 100 -234 19 -32
35 -62 35 -67 0 -5 5 -9 10 -9 6 0 10 -6 10 -14 0 -8 3 -16 8 -18 4 -2 22 -25
41 -53 19 -27 52 -71 72 -96 l38 -46 -212 -1 c-117 0 -222 -1 -235 -1 l-23 -1
3 -157 3 -158 217 0 c119 0 220 -3 224 -8 4 -4 8 -1286 8 -2850 1 -1887 4
-2842 11 -2843 6 0 17 -4 25 -7 8 -4 26 -9 40 -11 14 -3 43 -10 65 -16 61 -16
63 -17 175 -43 101 -25 302 -68 385 -83 22 -4 47 -9 55 -10 19 -5 64 -12 115
-19 22 -3 51 -8 65 -11 14 -3 39 -7 55 -9 17 -2 50 -7 75 -10 53 -8 88 -12
150 -19 25 -3 59 -7 75 -10 17 -3 66 -8 110 -11 44 -4 96 -8 115 -10 19 -2
100 -6 180 -10 l146 -6 -1 2986 c0 1981 3 2989 10 2993 6 4 120 7 255 7 l245
0 2 158 c1 154 1 157 -20 158 -12 0 -119 1 -238 2 l-217 0 60 71 c70 83 168
226 168 244 0 6 4 12 9 12 5 0 11 8 14 18 3 9 19 49 35 87 25 61 42 115 58
190 27 122 15 331 -27 480 -11 39 -24 79 -29 90 -62 141 -119 240 -188 328
-67 84 -270 261 -398 345 -10 7 -54 37 -97 67 -42 30 -82 55 -87 55 -6 0 -10
3 -10 8 0 4 -17 18 -38 32 -42 28 -164 120 -172 130 -3 3 -21 17 -40 30 -19
14 -42 30 -50 37 -8 7 -34 26 -57 43 -24 16 -43 36 -44 43 -8 125 -6 133 50
158 15 7 36 28 46 46 44 80 16 176 -64 219 -61 32 -64 67 -9 91 39 17 63 60
62 108 -1 52 -27 91 -70 107 -19 6 -34 14 -35 18 0 3 -2 55 -4 115 -4 165 -8
235 -12 235 -1 0 -3 -1 -4 -2z"/>
<path d="M13695 15523 c-119 -19 -191 -45 -255 -91 -212 -155 -291 -396 -208
-637 58 -167 214 -308 382 -346 l54 -12 -3 -141 c-2 -77 -3 -152 -4 -166 -1
-20 -7 -25 -27 -27 -15 0 -40 -14 -56 -30 -79 -79 -62 -195 35 -248 32 -18 37
-25 37 -57 0 -27 -4 -38 -15 -38 -31 0 -81 -33 -110 -73 -23 -32 -30 -54 -33
-102 -3 -53 0 -65 26 -106 20 -31 45 -53 76 -68 45 -22 46 -24 44 -68 -1 -38
-5 -46 -30 -59 -15 -8 -28 -18 -28 -23 0 -5 -14 -14 -31 -21 -17 -7 -36 -18
-42 -24 -7 -6 -37 -29 -67 -51 -30 -22 -59 -43 -65 -48 -5 -4 -59 -42 -120
-85 -60 -42 -111 -80 -113 -84 -2 -5 -7 -8 -11 -8 -5 0 -41 -22 -82 -48 -41
-27 -103 -67 -139 -90 -36 -22 -69 -45 -75 -49 -5 -5 -28 -20 -50 -33 -56 -34
-271 -190 -325 -237 -45 -39 -199 -193 -235 -236 -123 -145 -263 -431 -290
-592 -2 -11 -4 -20 -5 -20 -6 0 -22 -110 -25 -180 -3 -38 -5 -72 -6 -75 -2
-10 1 -106 6 -155 7 -79 46 -234 78 -310 16 -38 31 -79 34 -90 3 -11 11 -27
18 -35 7 -8 23 -35 36 -60 32 -61 111 -177 150 -220 17 -19 43 -51 58 -70 14
-19 47 -56 73 -82 34 -34 43 -48 31 -50 -9 -2 -173 -1 -366 2 -192 3 -353 3
-357 0 -4 -3 -58 -3 -120 0 -62 3 -116 3 -120 0 -5 -3 -42 -3 -84 0 -42 3 -76
2 -76 -2 0 -4 -7 -5 -15 -1 -14 5 -16 -17 -15 -178 2 -163 0 -184 -16 -196 -9
-7 -22 -9 -28 -6 -16 11 -60 9 -68 -2 -5 -7 -8 -7 -8 0 0 11 -101 11 -119 1
-6 -4 -11 -2 -11 5 0 8 -3 9 -13 0 -8 -6 -17 -8 -21 -4 -4 4 -15 8 -24 8 -16
0 -17 36 -17 453 -1 249 3 456 7 458 11 7 98 10 98 4 0 -3 15 -5 34 -5 19 0
32 4 29 9 -3 4 5 5 18 0 13 -4 31 -6 39 -6 8 1 35 2 60 3 l45 1 -1 91 c0 50
-5 92 -10 94 -5 2 -435 4 -956 6 l-947 2 -4 -22 c-2 -11 0 -28 5 -37 6 -10 5
-16 -1 -16 -6 0 -6 -11 -1 -28 4 -16 4 -35 -1 -44 -10 -17 17 -62 32 -52 16
10 59 12 64 3 3 -4 18 -4 34 1 16 4 32 6 35 3 7 -8 75 -9 70 -2 -2 4 13 5 34
2 20 -2 45 -4 55 -4 13 0 17 -9 17 -42 0 -23 1 -259 0 -524 0 -266 2 -483 5
-483 2 0 30 -7 62 -16 32 -9 67 -17 78 -19 11 -2 20 -4 20 -5 0 -1 7 -3 15 -5
8 -2 40 -11 70 -20 30 -9 64 -18 75 -20 22 -5 122 -35 240 -72 44 -14 85 -26
90 -27 6 -2 17 -6 25 -9 17 -6 150 -48 165 -52 10 -2 21 -6 60 -21 11 -4 22
-8 25 -9 18 -4 88 -28 105 -35 30 -13 59 -23 71 -25 6 -2 27 -10 45 -18 19 -8
63 -25 99 -37 36 -13 79 -29 95 -35 17 -7 62 -25 100 -40 69 -26 86 -34 175
-73 25 -11 69 -28 98 -38 28 -10 52 -22 52 -26 0 -4 7 -5 15 -2 8 4 15 1 15
-5 0 -6 8 -11 18 -11 10 0 22 -4 28 -8 5 -5 28 -16 51 -25 43 -17 64 -26 208
-92 44 -20 85 -38 90 -39 10 -2 29 -11 274 -127 67 -33 125 -59 126 -59 2 0
156 -75 342 -166 186 -92 344 -167 351 -167 6 0 12 -4 12 -8 0 -4 10 -11 23
-15 12 -3 29 -12 37 -19 8 -8 20 -14 25 -15 20 -2 85 -34 85 -42 0 -4 6 -8 13
-8 6 0 136 -61 287 -136 306 -151 462 -228 470 -229 3 -1 64 -30 135 -65 72
-36 132 -65 135 -65 3 0 34 -15 70 -32 70 -33 135 -63 270 -123 47 -21 105
-47 130 -58 74 -33 294 -127 300 -128 3 0 16 -5 30 -11 14 -6 90 -37 170 -68
80 -31 159 -62 175 -70 17 -7 48 -18 70 -25 22 -7 45 -15 50 -19 6 -3 15 -6
20 -7 11 -3 149 -51 180 -64 31 -12 211 -71 226 -74 15 -2 83 -23 109 -33 8
-3 20 -7 25 -8 6 0 17 -4 25 -8 20 -8 239 -68 265 -72 11 -1 44 -10 74 -19 30
-9 58 -16 63 -16 4 0 8 645 8 1434 0 1237 -2 1435 -14 1439 -8 3 -17 1 -20 -6
-2 -7 -5 -7 -5 -2 -1 11 -102 12 -119 1 -6 -3 -13 -2 -17 3 -4 7 -15 7 -30 1
-14 -5 -25 -6 -25 -2 0 9 -73 7 -88 -2 -22 -13 -27 23 -27 198 l0 180 -27 7
c-16 4 -30 3 -34 -2 -3 -5 -9 -7 -13 -5 -4 3 -29 5 -57 6 -53 1 -739 2 -764 1
-52 -2 -225 1 -228 4 -3 2 10 16 28 31 17 15 56 57 85 93 29 36 65 80 79 96
15 17 36 46 48 65 12 19 25 37 28 40 18 14 150 270 150 291 0 4 5 20 12 36 15
38 21 59 33 118 4 22 10 49 12 60 13 62 15 91 15 200 0 104 -6 220 -12 220 -1
0 -4 15 -7 34 -14 101 -95 322 -155 424 -15 26 -28 52 -28 57 0 6 -3 10 -8 10
-4 0 -13 12 -20 28 -17 37 -119 162 -197 242 -57 59 -90 88 -189 171 -66 54
-284 204 -466 319 -65 41 -236 155 -240 160 -4 6 -105 77 -148 105 -8 6 -23
17 -32 25 -9 8 -27 22 -40 30 -12 8 -33 23 -45 33 -13 9 -26 17 -29 17 -3 0
-14 7 -23 15 -10 8 -36 27 -58 43 -35 25 -40 33 -40 69 0 39 2 41 52 68 43 22
57 36 76 78 55 114 1 231 -123 270 -10 3 -17 19 -18 40 -2 30 2 36 28 47 56
23 84 59 95 120 6 34 -10 97 -29 115 -25 24 -75 55 -89 55 -12 0 -15 21 -17
123 -3 145 -3 179 -1 192 0 6 29 10 63 9 63 -1 191 28 215 48 7 6 13 7 13 4 0
-4 13 2 29 13 16 12 32 21 35 21 11 0 106 86 106 96 0 3 -13 -4 -29 -16 -87
-61 -277 -82 -376 -41 -116 48 -196 112 -251 198 -43 66 -63 123 -70 198 -3
33 -7 65 -9 72 -2 7 0 15 6 18 5 4 7 11 3 16 -10 16 33 141 67 194 41 65 115
134 176 164 26 12 56 27 67 33 28 15 82 21 171 21 64 0 75 2 55 10 -76 31
-202 50 -265 40z"/>
<path d="M13700 15122 c-13 -42 -29 -80 -34 -84 -6 -4 -43 -6 -83 -5 -79 3
-92 -7 -45 -35 15 -9 41 -28 57 -42 17 -14 33 -26 37 -26 4 0 -4 -32 -18 -72
-31 -92 -31 -108 -1 -81 12 11 43 34 70 52 l47 32 38 -28 c20 -15 43 -34 50
-41 40 -37 63 -34 43 6 -10 19 -41 114 -41 124 0 3 29 27 65 52 35 26 66 50
69 54 2 4 -33 6 -79 6 -45 -1 -89 2 -96 7 -8 5 -11 9 -7 9 6 0 -36 138 -45
146 -1 2 -14 -32 -27 -74z"/>
<path d="M10267 14393 c-4 -3 -2 -12 4 -20 6 -7 8 -13 3 -13 -5 0 -9 -56 -9
-125 l0 -126 -31 -11 c-82 -30 -86 -151 -6 -192 42 -22 38 -52 -8 -76 -54 -27
-84 -79 -78 -134 6 -52 31 -89 74 -109 31 -15 32 -17 30 -83 l-1 -67 -80 -60
c-44 -34 -84 -65 -90 -69 -53 -43 -170 -128 -260 -189 -60 -41 -112 -76 -115
-79 -3 -3 -30 -23 -60 -45 -122 -88 -246 -212 -312 -311 -45 -68 -117 -208
-123 -243 -2 -9 -4 -17 -5 -18 -2 -2 -4 -7 -5 -13 -1 -5 -3 -11 -5 -12 -4 -6
-20 -83 -24 -113 -1 -12 -5 -25 -8 -30 -6 -13 -2 -228 6 -276 38 -234 187
-442 446 -627 36 -26 74 -55 84 -64 11 -10 23 -18 28 -18 4 0 8 -4 8 -9 0 -5
-30 -9 -67 -9 -38 0 -84 -1 -103 -1 l-36 -1 0 -95 c0 -52 3 -95 6 -96 31 -5
139 -3 153 3 9 5 17 5 17 1 0 -11 383 -9 400 2 7 5 11 4 7 -1 -6 -11 524 -11
541 0 7 4 12 4 12 -1 0 -4 83 -8 185 -8 102 0 185 4 185 8 0 5 3 6 8 4 9 -6 8
56 -2 71 -3 6 -3 13 1 15 5 3 8 27 7 53 l-1 47 -121 -1 c-70 0 -122 3 -122 9
0 5 4 9 9 9 5 0 16 6 23 13 7 7 60 47 118 89 226 164 340 305 407 498 8 24 17
53 18 65 2 11 7 40 11 65 9 53 10 183 2 260 -4 30 -7 55 -8 55 -1 0 -3 11 -6
25 -12 77 -94 277 -126 311 -7 8 -20 27 -28 43 -18 36 -186 209 -255 262 -27
22 -51 42 -53 47 -2 4 -10 7 -18 7 -8 0 -14 5 -14 10 0 6 -4 10 -10 10 -5 0
-18 7 -27 15 -10 8 -76 55 -148 104 -125 87 -147 103 -197 145 -13 10 -60 45
-105 78 -46 33 -84 63 -84 67 -1 3 -3 35 -4 71 l-3 65 38 18 c67 31 89 124 45
191 -21 31 -50 50 -85 55 -25 3 -7 47 29 73 76 52 65 149 -21 192 -21 11 -22
18 -24 141 -2 72 -3 132 -4 135 -1 3 -2 8 -1 13 1 9 -4 9 -12 0z"/>
<path d="M7068 9845 c-2 -1 -70 -6 -153 -10 -82 -4 -168 -9 -190 -11 -158 -13
-256 -22 -305 -28 -19 -3 -60 -8 -90 -12 -30 -3 -77 -10 -105 -14 -27 -4 -53
-6 -57 -3 -5 2 -8 1 -8 -4 0 -4 -18 -9 -40 -10 -22 -1 -52 -5 -67 -8 -15 -3
-41 -8 -58 -10 -16 -3 -41 -7 -55 -10 -14 -3 -36 -7 -50 -10 -14 -3 -38 -8
-55 -11 -16 -4 -41 -8 -55 -10 -14 -1 -35 -5 -47 -8 -35 -9 -142 -34 -173 -41
-40 -9 -253 -66 -315 -84 -76 -23 -77 -23 -150 -45 -65 -18 -240 -82 -380
-137 -60 -24 -113 -42 -117 -41 -5 1 -8 -2 -8 -7 0 -5 -11 -12 -24 -15 -93
-23 -604 -289 -826 -429 -52 -33 -105 -65 -117 -71 -13 -6 -23 -14 -23 -18 0
-5 -5 -8 -11 -8 -16 0 -583 -390 -609 -419 -3 -3 -50 -40 -105 -81 -55 -41
-102 -77 -105 -80 -3 -3 -32 -25 -65 -50 -63 -48 -90 -69 -109 -85 -6 -5 -45
-37 -86 -69 -41 -33 -180 -146 -309 -250 -128 -105 -243 -198 -254 -206 -12
-8 -34 -27 -49 -42 -15 -16 -31 -28 -35 -28 -5 0 -16 -8 -25 -17 -8 -10 -31
-29 -49 -43 -19 -14 -43 -34 -55 -45 -11 -11 -38 -33 -60 -49 -21 -17 -41 -33
-44 -36 -3 -3 -41 -34 -85 -69 -44 -35 -96 -76 -115 -91 -19 -16 -53 -42 -75
-59 -22 -17 -45 -35 -50 -39 -6 -5 -48 -37 -93 -72 -45 -34 -86 -68 -89 -74
-4 -6 5 -2 19 9 29 23 49 36 97 68 19 12 46 30 60 39 14 10 33 21 41 25 8 3
17 9 20 13 7 8 182 114 330 199 154 89 143 83 259 143 53 28 102 55 108 60 7
6 13 7 13 2 0 -5 4 -4 8 1 6 10 222 119 367 186 33 15 100 46 149 68 49 23 95
41 102 41 8 0 14 5 14 10 0 6 5 10 10 10 6 0 86 32 178 71 92 39 230 95 307
126 77 30 165 64 195 76 30 12 58 22 62 22 3 0 10 3 14 8 4 4 16 7 26 7 10 0
18 4 18 8 0 5 6 9 13 9 8 0 83 25 168 55 85 31 186 66 224 78 39 12 79 26 90
31 24 11 452 144 495 154 8 1 42 11 75 21 33 10 62 18 65 19 3 0 11 4 18 8 6
5 12 6 12 3 0 -3 21 1 48 9 46 13 192 53 222 60 8 2 60 15 115 30 173 44 319
77 343 77 12 0 25 5 28 9 3 5 10 7 15 4 5 -4 15 -3 22 2 6 4 17 8 22 9 6 1 46
9 90 18 44 8 91 17 105 20 14 2 72 13 130 24 103 20 119 23 210 37 25 4 54 9
65 12 11 2 34 6 50 8 70 10 112 16 135 20 43 5 134 17 160 20 14 2 52 6 85 10
82 10 188 21 310 31 307 25 821 24 1040 -1 22 -3 56 -7 75 -9 43 -5 141 -18
155 -21 6 -1 28 -5 50 -9 22 -4 60 -11 85 -17 25 -5 56 -11 70 -13 14 -3 26
-5 28 -7 3 -2 11 -4 62 -13 76 -14 81 -15 100 -21 10 -3 27 -7 37 -9 10 -2 38
-9 63 -16 25 -7 54 -14 65 -16 11 -2 88 -22 170 -45 83 -22 157 -42 165 -43 8
-2 23 -6 32 -10 9 -4 22 -9 30 -10 20 -4 179 -53 303 -94 61 -20 112 -37 115
-37 3 -1 12 -4 20 -8 8 -3 50 -17 94 -32 43 -14 90 -31 105 -37 14 -6 31 -12
36 -13 37 -9 481 -182 594 -231 20 -9 45 -20 56 -24 43 -17 134 -57 243 -106
29 -13 54 -24 57 -24 2 0 48 -21 102 -46 54 -26 127 -60 163 -76 36 -17 115
-54 177 -84 61 -30 116 -54 121 -54 6 0 12 -3 14 -7 2 -5 109 -61 238 -125
315 -158 494 -251 498 -260 2 -5 8 -8 12 -8 5 0 75 -36 156 -80 81 -44 151
-80 156 -80 4 0 8 -4 8 -10 0 -5 4 -10 10 -10 5 0 49 -22 97 -49 161 -89 177
-98 258 -141 44 -24 95 -52 115 -63 72 -41 254 -134 530 -273 262 -131 371
-184 505 -244 28 -12 87 -40 133 -61 46 -22 85 -39 87 -39 3 0 28 -11 57 -24
67 -30 107 -47 243 -102 61 -25 120 -49 133 -54 36 -16 64 -27 127 -50 33 -12
69 -26 80 -31 11 -5 65 -25 120 -44 236 -84 325 -113 325 -108 0 3 6 1 13 -4
6 -6 26 -14 42 -18 36 -10 29 -8 135 -40 91 -29 245 -74 270 -80 8 -1 44 -11
80 -20 36 -9 73 -19 83 -21 9 -2 25 -6 35 -8 57 -14 192 -46 212 -50 203 -44
429 -84 570 -101 14 -2 45 -6 70 -9 419 -57 1004 -66 1400 -21 25 2 67 7 94
10 169 17 442 67 641 117 66 16 129 31 140 32 12 1 25 5 31 9 6 3 21 8 35 11
48 10 148 41 329 103 102 35 190 65 195 67 6 1 27 10 49 19 21 9 41 17 43 17
6 0 236 98 328 140 81 36 359 176 425 214 25 14 54 30 65 36 11 5 43 23 70 39
28 17 66 40 85 51 19 11 44 26 55 33 10 6 69 43 130 82 60 38 112 72 115 75 3
3 19 14 35 24 83 52 317 224 449 331 82 66 161 129 175 140 14 11 33 27 41 35
9 8 54 49 100 90 119 107 134 122 240 225 112 109 263 266 338 350 30 33 70
78 90 101 58 64 82 92 176 209 48 61 96 119 105 130 128 156 541 770 541 805
0 5 4 10 9 10 5 0 13 10 17 23 4 12 17 38 29 57 23 37 85 152 154 285 42 82
39 79 -63 -57 -82 -111 -302 -330 -431 -429 -16 -13 -34 -29 -40 -35 -5 -6
-50 -42 -100 -80 -105 -80 -94 -72 -211 -166 -50 -40 -107 -85 -125 -100 -19
-14 -45 -36 -59 -48 -14 -12 -45 -38 -69 -58 -24 -21 -59 -50 -77 -67 -18 -16
-49 -43 -70 -60 -20 -16 -49 -41 -65 -55 -15 -14 -42 -36 -60 -50 -18 -14 -37
-30 -43 -35 -6 -6 -31 -26 -56 -45 -25 -19 -52 -40 -60 -48 -8 -7 -37 -30 -65
-50 -27 -21 -73 -55 -101 -77 -28 -22 -61 -47 -74 -55 -12 -8 -41 -29 -65 -47
-57 -43 -366 -253 -372 -253 -2 0 -23 -13 -46 -28 -53 -36 -221 -137 -307
-184 -150 -82 -320 -167 -320 -160 0 4 -4 2 -8 -4 -12 -18 -469 -212 -540
-230 -9 -2 -71 -22 -137 -44 -181 -62 -218 -74 -235 -75 -8 -1 -22 -5 -30 -8
-16 -7 -276 -72 -320 -81 -14 -3 -50 -10 -80 -15 -30 -6 -66 -13 -80 -16 -78
-16 -241 -42 -315 -50 -22 -3 -58 -7 -80 -10 -218 -25 -395 -34 -655 -34 -159
1 -315 5 -315 9 0 1 -34 3 -75 6 -41 2 -95 6 -120 9 -25 2 -70 7 -100 10 -72
6 -141 15 -160 20 -8 2 -42 6 -75 10 -33 3 -67 8 -75 10 -8 2 -33 6 -55 10
-22 3 -47 7 -55 10 -24 6 -93 17 -117 18 -13 1 -23 5 -23 10 0 4 -4 6 -8 3 -5
-3 -26 -1 -48 4 -21 5 -82 18 -134 30 -52 12 -111 25 -130 30 -19 5 -62 16
-95 24 -106 26 -254 66 -281 76 -14 6 -30 8 -35 4 -5 -3 -9 0 -9 5 0 6 -6 11
-12 11 -11 0 -157 42 -198 57 -8 4 -19 7 -25 9 -5 1 -37 12 -70 23 -33 12 -67
23 -75 25 -8 3 -89 32 -180 66 -91 34 -171 62 -177 62 -7 1 -13 5 -13 10 0 4
-3 7 -7 6 -8 -3 -51 12 -103 35 -14 6 -27 11 -30 12 -17 6 -49 18 -75 30 -16
7 -46 19 -65 26 -19 7 -39 16 -44 21 -6 4 -15 8 -22 8 -6 0 -38 12 -70 27 -33
15 -61 28 -64 29 -12 2 -50 19 -120 51 -41 20 -79 36 -85 38 -18 4 -303 134
-407 186 -32 16 -58 26 -58 23 0 -3 -13 4 -29 15 -16 12 -32 21 -35 21 -4 0
-91 41 -194 91 -103 49 -187 90 -187 89 0 0 -163 81 -362 180 -200 99 -367
180 -373 180 -5 0 -10 4 -10 10 0 5 -3 10 -7 9 -16 -2 -53 14 -53 22 0 5 -3 8
-7 7 -5 -1 -87 36 -183 84 -389 191 -574 278 -590 278 -6 0 -10 5 -10 10 0 6
-4 10 -10 10 -5 0 -85 34 -177 76 -93 42 -247 110 -343 150 -96 41 -184 79
-195 84 -36 17 -100 43 -110 46 -9 2 -191 73 -242 95 -13 5 -33 13 -45 18 -13
5 -102 37 -198 71 -96 34 -184 66 -195 70 -23 10 -215 71 -230 74 -5 1 -14 4
-20 7 -9 6 -53 19 -82 25 -7 1 -41 11 -75 22 -65 21 -317 92 -347 97 -9 2 -16
4 -16 5 0 2 -19 7 -70 19 -22 5 -125 30 -230 54 -104 25 -203 47 -220 50 -16
3 -37 8 -45 11 -8 3 -28 7 -45 10 -16 2 -55 9 -85 15 -30 6 -68 13 -85 16 -16
2 -41 7 -55 10 -27 6 -139 24 -180 30 -14 2 -25 4 -25 5 0 2 -21 5 -90 14 -27
3 -66 9 -85 11 -41 6 -162 21 -235 30 -27 3 -64 8 -82 10 -18 3 -63 7 -100 10
-37 4 -88 8 -113 10 -57 6 -160 13 -275 21 -91 6 -801 14 -807 9z"/>
<path d="M6374 8301 c-2 -2 -41 -5 -86 -7 -129 -4 -308 -16 -423 -29 -27 -3
-73 -7 -101 -10 -29 -2 -67 -7 -85 -11 -19 -3 -52 -7 -74 -9 -22 -2 -40 -4
-40 -5 0 -1 -18 -4 -40 -5 -39 -4 -185 -28 -235 -39 -14 -3 -38 -7 -55 -10
-16 -2 -74 -14 -129 -25 -54 -12 -108 -23 -120 -25 -11 -2 -41 -9 -66 -16 -25
-7 -52 -13 -60 -15 -8 -2 -33 -8 -55 -13 -22 -6 -51 -13 -65 -16 -64 -12 -424
-124 -475 -147 -11 -5 -30 -11 -42 -14 -12 -2 -32 -9 -45 -16 -13 -7 -32 -14
-42 -16 -17 -3 -53 -17 -171 -69 -17 -7 -50 -21 -75 -32 -94 -41 -150 -66
-300 -140 -85 -42 -171 -86 -190 -98 -19 -11 -62 -35 -95 -53 -33 -18 -78 -43
-100 -57 -22 -13 -47 -27 -55 -31 -8 -4 -52 -31 -98 -60 -45 -29 -85 -53 -88
-53 -3 0 -10 -5 -17 -10 -25 -21 -272 -180 -279 -180 -4 0 -8 -4 -8 -9 0 -5
-8 -12 -18 -15 -10 -4 -27 -14 -38 -24 -10 -9 -39 -30 -64 -47 -25 -16 -47
-32 -50 -35 -3 -3 -27 -21 -55 -40 -27 -19 -55 -39 -62 -45 -6 -5 -28 -21 -48
-35 -21 -14 -45 -32 -54 -40 -9 -8 -29 -23 -44 -33 -16 -10 -36 -25 -45 -32
-9 -8 -64 -51 -122 -95 -58 -44 -118 -90 -134 -102 -25 -20 -336 -266 -431
-342 -161 -129 -273 -219 -285 -229 -8 -7 -49 -39 -90 -72 -41 -33 -84 -67
-95 -76 -59 -48 -142 -113 -240 -189 -60 -46 -116 -90 -123 -97 -7 -7 -21 -17
-30 -22 -9 -5 -14 -12 -10 -16 3 -4 37 13 75 38 37 24 91 57 118 72 28 16 53
34 57 40 5 6 8 6 8 0 0 -6 3 -6 8 0 7 11 260 156 327 188 22 11 48 27 59 36
10 9 21 15 25 14 3 0 85 38 181 86 236 118 537 255 549 251 2 -1 7 2 10 7 3 4
20 13 36 20 83 31 171 68 175 73 3 3 25 12 50 21 25 9 104 40 175 69 128 50
330 128 350 134 6 2 17 6 25 9 45 20 100 35 100 29 0 -4 4 -2 8 3 4 6 129 50
277 99 149 49 277 91 285 94 23 8 33 11 55 16 11 2 21 5 23 6 1 2 7 4 12 5 6
1 11 3 13 5 1 1 9 3 17 5 8 1 60 16 115 33 55 17 118 35 140 41 55 13 223 59
260 71 17 5 41 11 55 14 14 2 61 14 105 26 44 11 150 36 235 55 85 20 175 40
199 47 24 6 55 12 70 14 14 1 26 3 26 4 0 2 13 5 60 13 17 3 41 8 55 11 33 8
188 36 220 41 14 2 63 10 110 19 47 8 105 18 130 21 25 3 68 10 95 15 51 9
121 19 185 26 19 2 53 6 75 9 98 13 199 22 405 39 299 25 772 25 1005 0 108
-11 120 -12 120 -14 0 0 20 -3 45 -5 39 -3 166 -24 240 -39 14 -3 39 -8 55
-12 36 -7 176 -39 260 -60 33 -8 69 -16 80 -19 11 -2 35 -8 53 -14 18 -5 35
-10 37 -10 3 -1 6 -1 8 -2 1 0 9 -2 17 -4 8 -1 42 -10 75 -19 57 -16 71 -20
113 -31 9 -2 62 -18 117 -36 55 -17 125 -38 155 -46 30 -8 60 -19 65 -23 6 -5
12 -8 15 -8 10 0 95 -24 105 -30 6 -4 15 -7 20 -8 15 -3 117 -38 230 -80 55
-20 118 -43 140 -51 22 -7 56 -20 75 -28 19 -7 87 -34 150 -59 63 -25 133 -53
155 -62 22 -10 42 -18 45 -19 7 -2 28 -11 195 -83 134 -57 235 -102 319 -143
22 -10 46 -19 53 -19 7 0 13 -4 13 -10 0 -5 5 -10 12 -10 13 0 64 -24 405
-192 123 -61 225 -113 228 -118 3 -4 17 -11 32 -15 15 -3 39 -15 55 -26 15
-11 28 -17 28 -13 0 3 6 2 13 -4 6 -5 48 -29 92 -52 78 -41 152 -81 285 -152
36 -20 130 -71 210 -115 80 -44 161 -89 180 -99 19 -11 36 -22 38 -26 2 -5 8
-8 13 -8 5 0 42 -19 82 -41 40 -23 88 -50 107 -61 19 -11 49 -28 65 -38 17 -9
55 -31 85 -47 30 -17 80 -44 110 -61 266 -147 927 -484 1100 -560 96 -42 148
-66 218 -98 40 -19 75 -34 77 -34 3 0 27 -10 53 -21 71 -32 97 -43 222 -94 63
-26 124 -51 135 -55 103 -43 543 -202 566 -204 8 -1 28 -7 45 -13 37 -14 68
-24 71 -24 2 1 20 -5 40 -13 35 -12 103 -32 128 -37 6 -1 26 -9 45 -17 19 -8
36 -14 38 -13 3 2 51 -9 72 -15 8 -3 16 -5 17 -5 2 0 17 -5 35 -10 18 -6 44
-13 58 -16 35 -7 43 -9 60 -16 8 -3 29 -9 45 -13 17 -4 35 -8 40 -10 6 -1 21
-4 35 -7 14 -3 58 -13 99 -22 40 -9 79 -18 87 -19 7 -1 17 -5 20 -9 4 -4 14
-1 22 6 10 7 13 8 9 1 -4 -8 5 -14 26 -17 146 -24 152 -25 152 -27 0 -1 11 -3
25 -6 14 -2 53 -8 88 -14 34 -6 67 -8 72 -5 6 4 10 2 10 -3 0 -6 14 -9 30 -8
17 1 30 -1 30 -5 0 -4 8 -7 18 -7 9 1 42 -3 72 -7 30 -4 73 -9 95 -11 22 -1
40 -3 40 -4 0 -1 18 -3 40 -6 22 -2 46 -6 53 -9 6 -2 12 1 12 8 0 8 3 8 8 1 4
-5 30 -12 57 -13 28 -2 68 -5 90 -8 56 -6 778 -12 788 -6 6 4 78 9 220 17 15
0 27 3 27 7 0 3 17 5 38 5 39 0 136 10 175 18 12 3 40 7 62 10 22 3 87 15 145
26 58 12 116 23 130 25 14 2 36 7 50 10 14 3 38 8 54 11 16 2 33 7 36 9 4 3
25 7 46 11 22 3 46 10 55 15 9 4 19 6 22 3 3 -3 14 -1 25 5 10 5 30 12 43 15
13 3 39 9 57 15 17 5 32 7 32 4 0 -3 7 1 17 8 9 8 17 12 17 10 2 -8 342 99
380 120 10 6 28 12 40 15 28 5 205 76 341 136 60 26 115 48 121 48 7 0 14 3
16 8 2 4 19 14 38 23 148 68 513 260 530 279 3 3 25 16 50 29 25 14 48 29 52
35 4 6 8 8 8 4 0 -8 114 64 243 151 37 25 75 51 84 56 21 12 8 3 183 131 137
101 305 231 341 264 9 8 27 24 40 34 162 130 476 428 671 637 100 107 112 121
182 202 22 27 50 59 61 71 11 13 34 40 50 61 17 21 35 43 40 49 6 6 33 40 60
76 28 36 55 70 61 75 16 15 210 284 295 410 123 182 249 387 249 404 0 5 4 11
8 13 5 2 23 30 41 63 18 33 49 89 68 125 20 36 47 85 60 109 32 57 24 63 -12
9 -50 -76 -160 -201 -274 -310 -61 -60 -113 -108 -117 -108 -3 0 -11 -6 -18
-12 -23 -24 -110 -97 -176 -148 -36 -28 -72 -57 -81 -64 -8 -7 -42 -32 -75
-56 -76 -57 -82 -62 -102 -82 -9 -10 -22 -18 -28 -18 -7 0 -14 -3 -16 -7 -1
-5 -37 -35 -78 -67 -41 -33 -83 -67 -92 -75 -9 -9 -23 -20 -30 -26 -8 -5 -34
-28 -59 -50 -25 -22 -65 -56 -89 -75 -24 -19 -62 -51 -86 -70 -139 -114 -204
-164 -384 -297 -206 -151 -204 -150 -212 -152 -5 0 -18 -10 -30 -21 -56 -47
-526 -340 -547 -340 -5 0 -11 -3 -13 -7 -3 -9 -30 -23 -228 -124 -168 -85
-330 -160 -330 -152 0 3 -6 1 -13 -5 -17 -14 -262 -112 -281 -112 -8 0 -18 -4
-21 -10 -3 -5 -12 -10 -20 -10 -8 0 -26 -5 -42 -12 -15 -6 -31 -12 -35 -13 -5
-2 -9 -3 -10 -5 -2 -1 -10 -3 -18 -5 -8 -2 -34 -10 -58 -19 -23 -8 -46 -16
-50 -17 -9 -2 -17 -4 -67 -20 -22 -7 -41 -12 -42 -12 -1 1 -40 -10 -85 -24
-46 -13 -92 -26 -103 -29 -31 -6 -63 -14 -85 -19 -11 -3 -29 -7 -41 -10 -11
-2 -30 -7 -41 -11 -11 -3 -30 -7 -41 -9 -12 -1 -56 -10 -97 -19 -41 -8 -88
-18 -105 -21 -16 -2 -39 -7 -50 -9 -23 -4 -93 -14 -149 -21 -22 -3 -51 -7 -65
-9 -14 -3 -51 -7 -81 -11 -30 -3 -73 -9 -95 -12 -22 -3 -76 -7 -120 -8 -44 -2
-81 -5 -82 -6 -12 -8 -479 -11 -618 -4 -160 9 -287 19 -380 31 -22 3 -58 7
-80 9 -22 2 -51 6 -65 9 -14 2 -47 7 -73 11 -26 3 -71 10 -99 15 -28 6 -53 8
-56 5 -3 -3 -10 -1 -16 4 -6 4 -33 12 -61 16 -74 10 -87 13 -120 20 -16 4 -39
8 -50 10 -11 2 -22 4 -25 6 -3 1 -9 3 -15 4 -5 1 -28 6 -50 10 -22 5 -42 10
-45 10 -3 1 -18 4 -35 8 -16 4 -39 9 -50 12 -103 23 -484 129 -520 145 -17 7
-34 12 -85 25 -3 0 -30 9 -60 20 -30 11 -57 19 -60 20 -7 1 -130 45 -155 55
-11 5 -40 16 -65 24 -40 12 -78 26 -145 52 -11 4 -22 8 -25 9 -3 1 -14 5 -25
10 -11 4 -65 26 -120 47 -55 22 -119 48 -142 59 -23 10 -44 19 -46 19 -3 0
-22 8 -43 17 -22 9 -41 17 -44 18 -3 0 -27 11 -54 23 -27 12 -50 22 -53 22 -2
0 -42 18 -89 40 -47 22 -87 40 -89 40 -2 0 -48 20 -101 45 -53 25 -97 45 -99
45 -4 0 -242 113 -411 196 -88 43 -161 79 -164 79 -7 2 -468 233 -760 382
-563 287 -1031 517 -1295 638 -33 15 -85 38 -115 52 -73 34 -124 57 -130 58
-3 1 -23 10 -45 20 -22 10 -42 19 -45 20 -3 1 -21 8 -40 17 -19 8 -87 37 -150
63 -63 26 -127 53 -142 61 -14 8 -33 14 -42 14 -9 0 -16 4 -16 10 0 5 -3 9 -7
8 -5 0 -15 1 -23 4 -8 4 -24 9 -35 14 -11 4 -22 8 -25 9 -6 2 -27 11 -80 32
-19 8 -78 30 -130 49 -52 19 -110 41 -128 50 -18 8 -36 12 -41 9 -5 -3 -12 -1
-15 4 -5 7 -88 41 -116 46 -3 1 -90 29 -195 64 -104 34 -198 63 -207 64 -10 1
-18 4 -18 7 0 4 -6 7 -12 8 -7 0 -20 3 -28 5 -8 2 -28 7 -45 11 -16 4 -37 10
-45 13 -8 3 -19 7 -25 9 -5 1 -35 9 -65 17 -91 26 -214 59 -230 62 -8 2 -43
11 -77 20 -35 9 -71 18 -80 20 -10 1 -38 8 -63 15 -25 7 -54 14 -65 15 -11 2
-29 6 -40 8 -16 5 -168 36 -405 84 -14 3 -34 6 -45 8 -11 1 -78 12 -150 24
-71 12 -150 25 -175 28 -54 6 -85 11 -85 13 0 1 -16 3 -35 5 -19 2 -55 5 -80
8 -241 31 -423 46 -730 63 -125 7 -720 11 -726 5z m8710 -4079 c3 -5 -1 -9 -9
-9 -8 0 -12 4 -9 9 3 4 7 8 9 8 2 0 6 -4 9 -8z m201 -130 c-3 -3 -11 0 -18 7
-9 10 -8 11 6 5 10 -3 15 -9 12 -12z m1165 14 c0 -3 -4 -8 -10 -11 -5 -3 -10
-1 -10 4 0 6 5 11 10 11 6 0 10 -2 10 -4z m-943 -41 c0 -8 -4 -12 -9 -9 -5 3
-6 10 -3 15 9 13 12 11 12 -6z m184 -22 c13 -16 12 -17 -3 -4 -10 7 -18 15
-18 17 0 8 8 3 21 -13z m1004 -103 c-3 -5 -12 -10 -18 -10 -7 0 -6 4 3 10 19
12 23 12 15 0z"/>
</g>
</svg>
